<?xml version="1.0" encoding="UTF-8"?>
<svg version="1.1" xmlns="http://www.w3.org/2000/svg" width="474" height="474">
<path d="M0 0 C156.42 0 312.84 0 474 0 C474 156.42 474 312.84 474 474 C317.58 474 161.16 474 0 474 C0 317.58 0 161.16 0 0 Z " fill="#FCFCFC" transform="translate(0,0)"/>
<path d="M0 0 C156.42 0 312.84 0 474 0 C474 156.42 474 312.84 474 474 C317.58 474 161.16 474 0 474 C0 317.58 0 161.16 0 0 Z M42.6875 42.3125 C41.73423828 43.14201172 41.73423828 43.14201172 40.76171875 43.98828125 C36.83703405 48.46990569 35.62508967 52.66248238 35.61688995 58.5384264 C35.60783331 59.84412895 35.59877667 61.1498315 35.58944559 62.4951008 C35.59454953 63.93723068 35.5999416 65.37935957 35.60559082 66.82148743 C35.60070094 68.3588066 35.59451069 69.89612209 35.58713293 71.43343133 C35.57072231 75.65534199 35.57305362 79.87706606 35.5785079 84.09899747 C35.58117673 88.65332228 35.56664901 93.20759719 35.55441284 97.76190186 C35.53335004 106.68363939 35.52881849 115.60531194 35.53060073 124.52707139 C35.53190799 131.7789574 35.52810602 139.03082312 35.52067566 146.28270531 C35.51857648 148.37106695 35.51647888 150.45942859 35.51438284 152.54779023 C35.51333931 153.58721011 35.51229578 154.62663 35.51122063 155.69754746 C35.49231463 175.359679 35.49336949 195.02177323 35.50018996 214.68391009 C35.50576497 232.670617 35.48494242 250.65718146 35.45182949 268.64385507 C35.41809426 287.11189343 35.402924 305.57986354 35.40754652 324.04793328 C35.40979147 334.41658879 35.40454434 344.78511265 35.37965393 355.15374184 C35.35864293 363.98152602 35.35504679 372.80910637 35.37395352 381.63689891 C35.38311281 386.14035968 35.38424858 390.64344039 35.36359787 395.14687157 C35.34489153 399.27193503 35.34938714 403.39630709 35.37214369 407.52134421 C35.37633036 409.01122193 35.37212702 410.50115262 35.35854775 411.99097434 C35.28698136 420.41867906 35.55658574 427.23184113 41 434 C43.44400342 436.20514246 43.44400342 436.20514246 46.125 437.5 C46.97320312 437.9640625 47.82140625 438.428125 48.6953125 438.90625 C52.68762747 440.80090795 55.71070046 441.1271746 60.09119606 441.13422108 C62.0146647 441.14090784 62.0146647 441.14090784 63.9769913 441.14772969 C65.40829572 441.14764039 66.83960014 441.14745053 68.27090454 441.14717102 C69.78500697 441.15046955 71.29910852 441.15419509 72.81320894 441.1583125 C76.98483586 441.16834202 81.15644839 441.17205083 85.32808566 441.17470181 C89.82314082 441.17860207 94.31818455 441.18818063 98.81323242 441.19691467 C109.67455734 441.21668747 120.5358832 441.22674655 131.39722162 441.23564246 C136.51053622 441.24002423 141.62384977 441.24539135 146.73716354 441.25063133 C163.73271024 441.2676448 180.72825629 441.28213914 197.7238102 441.28938007 C202.13537217 441.29129001 206.54693414 441.29321033 210.95849609 441.29516602 C212.05498503 441.29564976 213.15147397 441.2961335 214.28118984 441.2966319 C232.04496597 441.3049328 249.80867478 441.33027021 267.57242151 441.36274669 C285.80531138 441.39580941 304.03816704 441.41382814 322.27108705 441.41702431 C332.51010904 441.41919019 342.74903287 441.4279502 352.98802567 441.45348549 C361.70788659 441.47518175 370.42762551 441.4832482 379.14751036 441.47351871 C383.59622695 441.46897083 388.04469174 441.47088851 392.49337387 441.49028015 C396.56850016 441.50788996 400.64319059 441.50693199 404.71832137 441.49138286 C406.19012358 441.48900345 407.66195581 441.49334767 409.13371213 441.50521151 C418.9381174 441.57932972 426.31876321 440.61160567 434.3125 434.75 C441.84339583 427.04396706 441.57506384 419.24979597 441.50793457 409.00720215 C441.51254697 407.47569229 441.51890216 405.94418686 441.52684355 404.41269064 C441.5435136 400.21610532 441.53530118 396.0198847 441.52289867 391.82329822 C441.51384096 387.29288456 441.52782149 382.7625332 441.53881836 378.23213196 C441.55660046 369.36177577 441.55276497 360.49155501 441.5411678 351.62119353 C441.53213254 344.41177295 441.53090988 337.20239031 441.53526306 329.9929657 C441.53618246 328.45356772 441.53618246 328.45356772 441.53712043 326.8830708 C441.53839934 324.79820191 441.53969619 322.71333303 441.5410108 320.62846416 C441.55241569 301.08078995 441.5393043 281.53319079 441.51780933 261.98552889 C441.49993844 245.2144361 441.50304257 228.44345407 441.52148438 211.67236328 C441.54289267 192.19441419 441.55131706 172.71653086 441.53903532 153.23857164 C441.53776113 151.16139254 441.53650365 149.08421343 441.53526306 147.0070343 C441.53464596 145.98503499 441.53402886 144.96303568 441.53339306 143.91006669 C441.52994004 136.70969698 441.53576747 129.50936899 441.54518127 122.30900574 C441.55640217 113.53358829 441.55335927 104.75831396 441.5320583 95.9829129 C441.52154913 91.50594702 441.51742378 87.02921972 441.53065491 82.55225563 C441.54258741 78.45268568 441.5360023 74.3535751 441.5147447 70.25404674 C441.51028225 68.77232752 441.51253693 67.29056938 441.52224785 65.80887526 C441.5771685 56.73167402 441.25057737 50.26409704 435.39453125 43.01171875 C426.54781555 35.60669005 417.23145536 35.56333419 406.07676697 35.61904907 C404.56502065 35.6155887 403.05327685 35.61082159 401.5415383 35.60486734 C397.4042721 35.59237997 393.26721435 35.59851735 389.12994754 35.60782599 C384.66159416 35.61462538 380.19327613 35.60413089 375.72492981 35.59588623 C366.9783888 35.58255653 358.23192508 35.58542315 349.48538106 35.59412415 C342.37658042 35.60090285 335.26780143 35.60181661 328.15899849 35.5985527 C326.64061896 35.59786316 326.64061896 35.59786316 325.09156509 35.59715968 C323.03512274 35.59620049 320.9786804 35.59522785 318.92223806 35.5942419 C299.64592405 35.58569036 280.36965287 35.59551868 261.09334589 35.611643 C244.55594288 35.625048 228.01860304 35.62271613 211.48120117 35.60888672 C192.27170238 35.59283026 173.0622411 35.58651217 153.85273653 35.59572351 C151.80421961 35.59667915 149.75570268 35.59762226 147.70718575 35.5985527 C146.69930197 35.59901553 145.6914182 35.59947836 144.6529925 35.59995521 C137.55280612 35.60254474 130.45264355 35.59817492 123.35246086 35.59111404 C114.69969313 35.58269822 106.04700704 35.58498104 97.39424866 35.60095628 C92.9800935 35.60883754 88.56607445 35.611933 84.15192032 35.60200882 C80.10982511 35.59305858 76.06799195 35.59800014 72.02592046 35.61394148 C70.56509039 35.61728786 69.1042381 35.61559839 67.64342236 35.60831411 C58.18206424 35.56476073 50.06406818 35.66900692 42.6875 42.3125 Z " fill="#FDFDFD" transform="translate(0,0)"/>
<path d="M0 0 C1.28207643 -0.00644889 2.56415287 -0.01289778 3.8850801 -0.0195421 C5.29537734 -0.01660025 6.70567418 -0.01346485 8.11597061 -0.01015663 C9.62385162 -0.01389525 11.1317307 -0.01849762 12.63960671 -0.02388728 C16.77555284 -0.03610657 20.91141801 -0.03585807 25.04737806 -0.03349853 C29.51105079 -0.03309009 33.97469766 -0.0441321 38.43835831 -0.05361366 C47.18081215 -0.07021885 55.92323902 -0.075723 64.66570732 -0.07683842 C71.77309726 -0.07778914 78.88047832 -0.08190062 85.98786545 -0.08823967 C106.14432602 -0.1058509 126.30076531 -0.11507875 146.45723364 -0.11357872 C147.54362624 -0.11349881 148.63001884 -0.1134189 149.74933243 -0.11333656 C150.83705351 -0.1132548 151.92477459 -0.11317304 153.04545692 -0.1130888 C170.67183505 -0.11227597 188.29812771 -0.13141317 205.92448112 -0.1596133 C224.02869061 -0.18834908 242.13285843 -0.2021532 260.2370913 -0.20042574 C270.39898173 -0.19976208 280.56078256 -0.20524425 290.72265244 -0.22678185 C299.37502633 -0.24500278 308.02727002 -0.24933347 316.67965481 -0.235763 C321.09218798 -0.22923792 325.50447141 -0.22909945 329.91698074 -0.2464695 C333.96122058 -0.26222576 338.00501319 -0.25931078 342.04924229 -0.24190123 C343.50749838 -0.23883693 344.96578806 -0.24244219 346.42400452 -0.25362138 C355.65547811 -0.31967139 365.42594311 -0.21299389 372.68518996 6.24166548 C377.70431768 11.59625103 379.70063704 16.25759447 379.71349621 23.64141273 C379.7240946 25.5865298 379.7240946 25.5865298 379.73490709 27.57094216 C379.73265578 29.00815311 379.73020929 30.44536376 379.72758865 31.88257408 C379.73204114 33.41077873 379.73735522 34.93898106 379.74345738 36.46718001 C379.75764656 40.66850941 379.7593005 44.86976485 379.75886047 49.07111478 C379.76050786 53.60159096 379.77357292 58.13203661 379.78505325 62.66249657 C379.8079082 72.56951318 379.81582435 82.47650838 379.8208797 92.38354778 C379.82413605 98.56927942 379.83065815 104.75500484 379.83788109 110.94073296 C379.85744743 128.06675199 379.87385152 145.19276523 379.87675762 162.31879616 C379.87694519 163.41484027 379.87713276 164.51088438 379.87732602 165.64014195 C379.87769227 167.86209695 379.87805596 170.08405194 379.87841713 172.30600694 C379.87859994 173.40899077 379.87878275 174.5119746 379.8789711 175.64838219 C379.87924192 177.30487686 379.87924192 177.30487686 379.87951822 178.99483606 C379.88306026 196.8910706 379.91008441 214.78718484 379.94746899 232.68337765 C379.9855427 251.05645748 380.00491503 269.4294776 380.00521713 287.80259776 C380.0058019 298.11873776 380.01430663 308.43473425 380.0432148 318.75083733 C380.0677161 327.53472021 380.07501999 336.31840723 380.05996727 345.10231504 C380.05279333 349.58349774 380.0536766 354.0642936 380.07637787 358.54543304 C380.09697298 362.65017301 380.09436292 366.75422884 380.07350302 370.85896143 C380.07000912 372.34147079 380.07491407 373.82402955 380.08920746 375.30647412 C380.1784587 385.20343515 379.2642906 392.31277739 372.20343399 399.56976891 C363.27437438 405.04896458 355.89668106 405.83599367 345.46773148 405.7719326 C343.94915752 405.7772633 342.43058885 405.78433199 340.91203016 405.79297966 C336.75577707 405.81156469 332.59988132 405.8053164 328.44361365 405.79482663 C323.95475473 405.78782284 319.46596834 405.80384149 314.97713089 405.81682396 C306.18980048 405.83844941 297.40259964 405.8383408 288.61525137 405.83019841 C281.4721367 405.82389478 274.32905978 405.82503879 267.18594551 405.83147049 C265.66010606 405.83282297 265.66010606 405.83282297 264.10344158 405.83420278 C262.03685669 405.83605401 259.9702718 405.83791657 257.90368693 405.83979034 C238.53097081 405.85636373 219.15832754 405.8476535 199.78561579 405.83080476 C182.0681308 405.81610815 164.35081539 405.83073649 146.63335223 405.85957492 C128.43302078 405.8889783 110.23276758 405.89993845 92.03241342 405.89039272 C89.97318837 405.88937019 87.91396331 405.88837558 85.85473824 405.88740921 C84.33504238 405.88669463 84.33504238 405.88669463 82.78464561 405.8859656 C75.65231579 405.88380273 68.52006017 405.89359885 61.38774681 405.90818024 C52.69253826 405.92570912 43.9975459 405.92557817 35.30234582 405.90282858 C30.86760346 405.89169149 26.43324193 405.88851174 21.99851608 405.90712929 C17.93518739 405.92396792 13.87257069 405.91753781 9.80928784 405.8929125 C8.34303911 405.88803985 6.87673258 405.8915159 5.41053236 405.90439994 C-5.01436099 405.98936339 -12.37213835 404.55094292 -20.48406601 397.81976891 C-24.39398006 392.96199691 -25.92119599 388.94089346 -25.92688274 382.71325588 C-25.93532268 381.40631993 -25.94376263 380.09938398 -25.95245832 378.75284392 C-25.94666353 377.30933589 -25.94058252 375.86582898 -25.93424606 374.42232323 C-25.93841965 372.88357925 -25.94389731 371.34483835 -25.95056587 369.80610317 C-25.96503593 365.58032521 -25.96077091 361.35474203 -25.95339906 357.12895334 C-25.94867356 352.57058142 -25.96117175 348.01225201 -25.97141647 343.45389366 C-25.9886218 334.52480112 -25.98944091 325.5957789 -25.98420357 316.66667408 C-25.98016395 309.41000431 -25.98160295 302.15335533 -25.98695183 294.89668655 C-25.98770025 293.86431081 -25.98844867 292.83193507 -25.98921977 291.76827521 C-25.99075123 289.67108353 -25.99228958 287.57389185 -25.99383474 285.47670018 C-26.00756599 265.80508849 -26.00211764 246.13351656 -25.99064953 226.46190577 C-25.98071591 208.46093372 -25.99365895 190.46006444 -26.01758372 172.45910824 C-26.04195944 153.97978099 -26.05158639 135.50050164 -26.04493099 117.02115864 C-26.04143545 106.64476434 -26.04369296 96.26844911 -26.06118202 85.89206696 C-26.07588487 77.05912124 -26.07656453 68.22631026 -26.05911111 59.39336724 C-26.05058303 54.88615586 -26.04849558 50.37918537 -26.06376266 45.87198639 C-26.07756598 41.74587508 -26.07290308 37.620212 -26.05352343 33.49412691 C-26.04974968 32.00159534 -26.05272489 30.50902823 -26.06313508 29.0165282 C-26.12288827 19.79387106 -25.86499921 14.14555721 -19.65203476 7.11273766 C-19.01910507 6.56230797 -18.38617538 6.01187828 -17.73406601 5.44476891 C-16.79627304 4.59978844 -16.79627304 4.59978844 -15.83953476 3.73773766 C-10.97443186 0.59655538 -5.68118226 0.0072552 0 0 Z M-8.54656601 19.25726891 C-9.90541678 21.97497044 -9.67324518 24.10143205 -9.67520046 27.14567947 C-9.67842491 28.40818397 -9.68164935 29.67068847 -9.68497151 30.97145069 C-9.68350014 32.38556101 -9.6819324 33.79967124 -9.68027878 35.21378136 C-9.68214542 36.70583502 -9.68444554 38.19788819 -9.6871441 39.68994057 C-9.69328666 43.80507469 -9.69312563 47.92018858 -9.69194973 52.03532624 C-9.69174634 56.46758672 -9.69725856 60.89984058 -9.70200729 65.33209801 C-9.71032789 74.02141599 -9.71306277 82.7107272 -9.71361967 91.40004884 C-9.71409418 98.4604188 -9.71614562 105.52078652 -9.7193203 112.58115578 C-9.72813079 132.58126325 -9.73273907 152.58136534 -9.73198982 172.58147477 C-9.73194987 173.66058546 -9.73190991 174.73969616 -9.73186874 175.85150719 C-9.73182786 176.93192949 -9.73178698 178.01235179 -9.73174486 179.12551416 C-9.7313383 196.64051416 -9.74090939 214.15549266 -9.75500711 231.67048644 C-9.76935521 249.63776777 -9.77627816 267.60503861 -9.77541333 285.57232583 C-9.77508082 295.66641148 -9.77785176 305.76047462 -9.78859138 315.85455513 C-9.79767583 324.44829816 -9.79988864 333.04200847 -9.79308196 341.63575421 C-9.78980629 346.02301386 -9.7897976 350.41021062 -9.79843521 354.79746437 C-9.80625518 358.81058304 -9.80491527 362.82358851 -9.79615108 366.83670427 C-9.79460609 368.29161904 -9.79646949 369.74654208 -9.80201115 371.20144711 C-9.80902691 373.17334549 -9.80260826 375.14527817 -9.79545498 377.11717606 C-9.79567235 378.21424311 -9.79588971 379.31131016 -9.79611367 380.44162166 C-9.54138125 383.31576856 -9.20866159 384.91280187 -7.54656601 387.25726891 C-4.30027784 389.55478721 -1.34512065 389.50864215 2.55391216 389.5117445 C4.44226682 389.52049279 4.44226682 389.52049279 6.36877006 389.52941781 C7.76844674 389.5257845 9.16812293 389.52196012 10.56779861 389.51796532 C12.05261746 389.52098489 13.53743475 389.5248734 15.02224928 389.52955788 C19.10815208 389.53987162 23.19396746 389.53764751 27.27987754 389.53337729 C31.68418004 389.53091618 36.08846116 389.53991654 40.49275589 389.54741478 C49.12332019 389.56018084 57.75385342 389.56195311 66.38442557 389.55961452 C73.39754485 389.55783337 80.41065467 389.55957661 87.42377281 389.56383896 C88.42091728 389.56443415 89.41806176 389.56502934 90.44542273 389.56564256 C92.47094794 389.56685428 94.49647315 389.56806841 96.52199835 389.56928494 C115.52826689 389.58016776 134.53451769 389.57799443 153.54078723 389.57190009 C170.93860014 389.56672991 188.33635708 389.57798774 205.73415893 389.59699831 C223.58738093 389.61635736 241.44057642 389.62463614 259.293809 389.62087506 C269.32139557 389.61896012 279.34893449 389.62147903 289.37651253 389.6355896 C297.91273525 389.64747975 306.44888099 389.64893494 314.98510473 389.63679943 C319.34215033 389.63089415 323.69905495 389.62985666 328.05609131 389.64180183 C332.04271177 389.65260467 336.02907259 389.64962455 340.01568062 389.63554015 C341.45978567 389.6328777 342.9039107 389.63530799 344.34799623 389.64327601 C346.30768014 389.65334053 348.2674369 389.64319393 350.22711468 389.63199902 C351.31664234 389.63205403 352.40617 389.63210905 353.52871364 389.63216573 C356.92136691 389.19728828 358.75412174 388.34174073 361.45343399 386.25726891 C363.7761763 383.02232452 363.7039523 380.06100433 363.70511627 376.15399742 C363.71033177 374.89447762 363.71554726 373.63495781 363.7209208 372.33727074 C363.71659655 370.93690497 363.71208323 369.53653977 363.70740128 368.13617516 C363.70970496 366.65064402 363.71288085 365.16511402 363.71685576 363.67958641 C363.72522516 359.59174882 363.72106878 355.50400429 363.71488333 351.41616631 C363.7103686 347.00984114 363.71733772 342.60353227 363.72284317 338.19721031 C363.7317493 329.56296763 363.72980974 320.92875967 363.72401789 312.29451561 C363.7195062 305.27900469 363.71888636 298.26350352 363.72106552 291.24799156 C363.72152522 289.75184177 363.72152522 289.75184177 363.72199421 288.22546673 C363.72263364 286.19937579 363.72328207 284.17328485 363.72393939 282.14719391 C363.72964626 263.13618485 363.7230792 244.12519505 363.71233866 225.11418915 C363.70340282 208.79208108 363.70495477 192.47000146 363.71417618 176.14789391 C363.72487251 157.20619297 363.7290969 138.26450894 363.72295165 119.3228054 C363.72231453 117.30405236 363.72168579 115.2852993 363.72106552 113.26654625 C363.72075697 112.27320935 363.72044842 111.27987246 363.72013052 110.25643444 C363.71840167 103.24710561 363.72132277 96.23778748 363.72602463 89.22846031 C363.73162639 80.6896588 363.73013188 72.15089407 363.71946314 63.61209679 C363.71419692 59.25317929 363.71216581 54.89432319 363.71876144 50.53540611 C363.72470341 46.54826875 363.72147492 42.56124993 363.71080634 38.57412338 C363.70856484 37.12869128 363.70972531 35.68324925 363.71455792 34.23782349 C363.72060747 32.27873593 363.71322855 30.31962049 363.70511627 28.36054039 C363.70479157 27.27063301 363.70446686 26.18072563 363.70413232 25.05779076 C363.44760258 22.19212693 363.10940154 20.59651005 361.45343399 18.25726891 C358.20373543 15.95604877 355.24082091 16.00589057 351.33733845 16.00279331 C350.07495194 15.99696112 348.81256544 15.99112893 347.5119248 15.98512 C346.10831788 15.98875331 344.70471144 15.9925777 343.3011055 15.99657249 C341.81216186 15.99355293 340.32321977 15.98966443 338.83428043 15.98497993 C334.73697613 15.97466606 330.63975901 15.97689033 326.54244745 15.98116052 C322.12587492 15.98362161 317.70932372 15.9746213 313.29275894 15.96712303 C304.63813119 15.95435691 295.98353444 15.95258471 287.32889885 15.95492329 C280.29623344 15.95670443 273.26357745 15.95496121 266.23091316 15.95069885 C264.73103341 15.94980607 264.73103341 15.94980607 263.20085306 15.94889525 C261.16969085 15.94768353 259.13852864 15.9464694 257.10736644 15.94525287 C238.04816279 15.93437002 218.98897683 15.93654339 199.92977219 15.94263772 C182.48346039 15.94780791 165.03720441 15.93655007 147.59090365 15.9175395 C129.68796111 15.8981805 111.78504501 15.88990167 93.88209194 15.89366275 C83.82655974 15.8955777 73.77107506 15.89305871 63.71555138 15.87894821 C55.15554015 15.86705813 46.59560569 15.8656028 38.03559346 15.87773838 C33.6663964 15.88364371 29.29733993 15.88468101 24.92815208 15.87273598 C20.93042934 15.8619333 16.93296551 15.86491307 12.93525516 15.87899766 C11.48711245 15.88166016 10.03894982 15.87922969 8.59082658 15.8712618 C6.62569679 15.86119761 4.66049435 15.87134369 2.69537067 15.8825388 C1.60280525 15.88248378 0.51023983 15.88242876 -0.61543363 15.88237208 C-3.96033269 16.31019037 -5.84733245 17.26726768 -8.54656601 19.25726891 Z " fill="#030303" transform="translate(61.546566009521484,35.74273109436035)"/>
<path d="M0 0 C49.5 0 99 0 150 0 C146.72730602 18.98162506 143.36395711 37.91022937 139.6875 56.8125 C139.22824736 59.18549497 138.76926234 61.55854175 138.31054688 63.93164062 C137.21057017 69.62179041 136.10520932 75.31085456 135 81 C127.74 81 120.48 81 113 81 C114.68696852 69.32440209 116.89424852 57.76919346 119.125 46.1875 C119.50151775 44.22334862 119.87782146 42.2591562 120.25390625 40.29492188 C121.16641197 35.52939093 122.0832953 30.76473257 123 26 C110.13 26 97.26 26 84 26 C83.34 30.62 82.68 35.24 82 40 C81.22037808 44.32763342 80.4189355 48.64251248 79.57421875 52.95703125 C79.34475052 54.14310471 79.11528229 55.32917816 78.87886047 56.55119324 C78.15159667 60.30558927 77.41955769 64.05903614 76.6875 67.8125 C76.20868767 70.28314564 75.73017018 72.75384844 75.25195312 75.22460938 C73.24631185 85.56936734 71.22576668 95.91061897 69.14100647 106.23974609 C65.9913743 121.84853144 63.0657594 137.49729793 60.15222168 153.15142822 C59.07868245 158.91938021 58.00371889 164.68706424 56.92636871 170.45430565 C56.55474603 172.44609481 56.18463651 174.438161 55.81463623 176.43025208 C55.5906012 177.63058578 55.36656616 178.83091949 55.13574219 180.06762695 C54.93986511 181.12029251 54.74398804 182.17295807 54.54217529 183.25752258 C54.09503622 185.51927967 53.55917368 187.76330528 53 190 C60.92 190 68.84 190 77 190 C76.71125 192.64 76.4225 195.28 76.125 198 C76.03879395 198.8146875 75.95258789 199.629375 75.86376953 200.46875 C75.78755371 201.1390625 75.71133789 201.809375 75.6328125 202.5 C75.55949707 203.1703125 75.48618164 203.840625 75.41064453 204.53125 C74.82308033 208.0636217 73.86849706 211.52601175 73 215 C48.25 215 23.5 215 -2 215 C-1.26528593 209.85700151 -0.45470339 204.7871285 0.5 199.6875 C0.63019531 198.97271484 0.76039063 198.25792969 0.89453125 197.52148438 C1.88022791 192.23954417 1.88022791 192.23954417 3 190 C10.26 190 17.52 190 25 190 C25.23332031 188.01355469 25.46664062 186.02710938 25.70703125 183.98046875 C26.97485981 174.08206746 29.02678121 164.33514434 31.0234375 154.56329346 C31.93480572 150.1018612 32.83481217 145.6381583 33.73550415 141.17456055 C34.18938515 138.9255937 34.64378937 136.67673239 35.09872437 134.42797852 C36.93760575 125.33432872 38.73647585 116.23353907 40.5 107.125 C40.63210876 106.4433075 40.76421753 105.76161499 40.90032959 105.05926514 C41.76346298 100.60298194 42.62322291 96.14605289 43.48187256 91.68890381 C44.06641837 88.65531142 44.65160288 85.62184255 45.23681641 82.58837891 C46.59669613 75.5383397 47.95486835 68.48797242 49.3125 61.4375 C49.64121094 59.73125458 49.64121094 59.73125458 49.9765625 57.99053955 C50.60609898 54.7216785 51.23481711 51.45266112 51.86328125 48.18359375 C52.04945511 47.21730545 52.23562897 46.25101715 52.42744446 45.25544739 C53.65892084 38.84332057 54.83187127 32.42470801 56 26 C43.46 26 30.92 26 18 26 C17.34 29.63 16.68 33.26 16 37 C15.54292768 39.2989622 15.07691224 41.59618476 14.59765625 43.890625 C14.34838379 45.08856689 14.09911133 46.28650879 13.84228516 47.52075195 C13.58495605 48.75140381 13.32762695 49.98205566 13.0625 51.25 C12.52957447 53.81112024 11.99701877 56.37231746 11.46484375 58.93359375 C11.21202637 60.15030762 10.95920898 61.36702148 10.69873047 62.62060547 C9.43330972 68.74078504 8.21269096 74.8691735 7 81 C0.07 81 -6.86 81 -14 81 C-13.37364549 70.64427216 -11.61816079 60.67171408 -9.6875 50.5 C-9.36850849 48.79588964 -9.04990714 47.0917062 -8.73168945 45.38745117 C-6.83848471 35.2809692 -4.89626833 25.1847712 -2.82421875 15.11328125 C-1.81729486 10.08820612 -0.91678178 5.04229976 0 0 Z " fill="#040404" transform="translate(220,131)"/>
<path d="M0 0 C42.24 0 84.48 0 128 0 C126 15 126 15 125 19 C82.76 19 40.52 19 -3 19 C-1 4 -1 4 0 0 Z " fill="#030303" transform="translate(113,262)"/>
<path d="M0 0 C34.98 0 69.96 0 106 0 C104 14 104 14 103 19 C68.02 19 33.04 19 -3 19 C-1 3 -1 3 0 0 Z " fill="#030303" transform="translate(101,327)"/>
<path d="M0 0 C23.1 0 46.2 0 70 0 C68 15 68 15 67 19 C43.9 19 20.8 19 -3 19 C-2.01 12.73 -1.02 6.46 0 0 Z " fill="#050505" transform="translate(137,131)"/>
<path d="M0 0 C22.77 0 45.54 0 69 0 C67 16 67 16 66 19 C43.23 19 20.46 19 -3 19 C-2 10 -2 10 0 0 Z " fill="#080808" transform="translate(125,197)"/>
<path d="M0 0 C2.475 0.495 2.475 0.495 5 1 C5 1.66 5 2.32 5 3 C5.99 3 6.98 3 8 3 C7.34 4.32 6.68 5.64 6 7 C5.01 7 4.02 7 3 7 C1.79371992 4.66785852 0.8345262 2.50357861 0 0 Z " fill="#F2F2F2" transform="translate(416,416)"/>
<path d="M0 0 C2.31 0.66 4.62 1.32 7 2 C6.67 2.99 6.34 3.98 6 5 C3.69 5.33 1.38 5.66 -1 6 C-1.33 5.34 -1.66 4.68 -2 4 C-1.0625 1.875 -1.0625 1.875 0 0 Z " fill="#EBEBEB" transform="translate(49,32)"/>
<path d="M0 0 C2.97 0.33 5.94 0.66 9 1 C8.67 2.65 8.34 4.3 8 6 C1.125 2.25 1.125 2.25 0 0 Z " fill="#1F1F1F" transform="translate(40,432)"/>
<path d="M0 0 C1.32 0.66 2.64 1.32 4 2 C4 2.66 4 3.32 4 4 C3.34 4 2.68 4 2 4 C1.67 4.66 1.34 5.32 1 6 C0.67 5.34 0.34 4.68 0 4 C-0.66 3.67 -1.32 3.34 -2 3 C-1.34 2.01 -0.68 1.02 0 0 Z " fill="#F2F2F2" transform="translate(108,280)"/>
</svg>
